<svg width="24" height="24" viewBox="0 0 24 24" xmlns="http://www.w3.org/2000/svg">
    <path d="M12 23.65C5.566 23.65.35 18.434.35 12S5.566.35 12 .35h-.002c6.337 0 11.491 5.057 11.648 11.354l.004.296c0 6.434-5.216 11.65-11.65 11.65zm-.65-6.6H7.43l.138.448c.836 2.57 2.228 4.37 3.781 4.769l.001-5.217zm5.219 0H12.65v5.217c1.553-.398 2.945-2.198 3.782-4.769l.137-.448zm-13.605.001a10.386 10.386 0 0 0 5.344 4.621c-.962-1.154-1.73-2.752-2.228-4.621zm18.072 0H17.92c-.497 1.87-1.266 3.467-2.228 4.621a10.386 10.386 0 0 0 5.344-4.621zM22.35 12c0-1.323-.248-2.587-.7-3.75h-3.436c.22 1.18.34 2.441.34 3.75 0 1.31-.12 2.571-.34 3.75h3.435c.453-1.162.701-2.427.701-3.75zm-20-3.75a10.324 10.324 0 0 0-.7 3.75c0 1.323.248 2.588.7 3.75h3.436c-.22-1.179-.34-2.44-.34-3.75 0-1.309.12-2.57.34-3.75zm14.538 0H12.65v7.5l4.238.001c.235-1.16.365-2.424.365-3.751 0-1.326-.13-2.59-.365-3.75zm-5.538 0H7.112A18.986 18.986 0 0 0 6.747 12c0 1.327.13 2.59.365 3.751l4.238-.001v-7.5zm9.687-1.3a10.386 10.386 0 0 0-5.345-4.622c.962 1.155 1.731 2.752 2.229 4.622zM8.308 2.328l-.03.011A10.387 10.387 0 0 0 2.963 6.95H6.08c.498-1.87 1.267-3.467 2.229-4.622zm4.342-.595V6.95h3.919l-.137-.448c-.837-2.571-2.229-4.371-3.782-4.77zm-1.3 0c-1.554.399-2.946 2.198-3.782 4.769l-.138.448h3.92z" fill="#FFF" fill-rule="nonzero"/>
</svg>
