<svg xmlns="http://www.w3.org/2000/svg" xmlns:xlink="http://www.w3.org/1999/xlink" width="44" height="90" viewBox="0 0 44 90">
    <defs>
        <path id="prefix__a" d="M0 0L45 0 45 90 0 90z"/>
    </defs>
    <g fill="none" fill-rule="evenodd">
        <mask id="prefix__b" fill="#fff">
            <use xlink:href="#prefix__a"/>
        </mask>
        <path fill="#FFF" d="M-3.55 4.405l.026 7.131c-6.53.73-12.493 3.37-17.324 7.358l-5.208-5.27c-1.704-1.72-4.226-1.957-5.641-.528-1.411 1.429-1.178 3.98.521 5.7l5.26 5.302c-3.81 4.86-6.315 10.81-6.989 17.312h-7.738c-2.408 0-4.357 1.638-4.357 3.657 0 2.021 1.95 3.659 4.357 3.659h7.76c.724 6.593 3.335 12.612 7.271 17.49l-5.115 5.176c-1.699 1.72-1.936 4.273-.521 5.701 1.411 1.429 3.937 1.192 5.636-.527l5.17-5.202c4.751 3.8 10.553 6.312 16.893 7.025v7.207C-3.55 88.03-1.93 90 .066 90c1.996 0 3.62-1.97 3.62-4.404l.011-7.185c6.421-.685 12.295-3.219 17.096-7.06l4.806 4.857c1.7 1.72 4.22 1.956 5.636.528 1.412-1.429 1.178-3.982-.521-5.702L25.959 66.2c3.933-4.876 6.54-10.89 7.264-17.474h6.42c2.407 0 4.357-1.638 4.357-3.659 0-2.02-1.95-3.657-4.357-3.657h-6.399c-.674-6.497-3.178-12.444-6.984-17.302l4.9-4.954c1.703-1.72 1.936-4.272.52-5.701-1.41-1.428-3.936-1.192-5.636.527L21.2 18.91c-4.878-4.032-10.908-6.69-17.515-7.393v-7.11C3.685 1.972 2.062 0 .065 0-1.93 0-3.548 1.973-3.548 4.405zm5.82 29.717l-.018-11.016c4.383.423 8.379 2.16 11.608 4.817L6.14 35.712c-1.157-.766-2.467-1.314-3.87-1.59zm-15.617-6.345c2.932-2.362 6.488-3.973 10.374-4.542l.013 11.142c-.94.284-1.831.693-2.645 1.208l-7.742-7.808zm-8.06 14.71c.453-4.102 2.025-7.86 4.403-10.96l7.76 7.83c-.565.963-.984 2.02-1.238 3.144l-10.926-.015zm32.233.042c-.234-1.053-.619-2.05-1.128-2.966l7.786-7.85c2.305 3.077 3.83 6.79 4.267 10.83l-10.925-.014zm-32.2 5.209l10.968.014c.3 1.16.78 2.246 1.411 3.226l-7.725 7.79c-2.476-3.095-4.137-6.882-4.653-11.03zm30.83 3.04c.565-.918 1-1.926 1.276-2.998l10.973.015c-.518 4.045-2.12 7.746-4.505 10.792l-7.743-7.808zm-7.16 5.024c1.236-.247 2.393-.704 3.444-1.334l7.76 7.83c-3.153 2.481-6.997 4.103-11.192 4.518l-.013-11.014zm-15.279 6.638l7.785-7.852c.708.405 1.467.733 2.263.971l.017 11.143c-3.75-.54-7.187-2.047-10.065-4.262z" mask="url(#prefix__b)" opacity=".2"/>
    </g>
</svg>
